<svg xmlns="http://www.w3.org/2000/svg" id="_&#x5716;&#x5C64;_1" viewBox="0 0 178.55 178.55"><defs><style>.cls-1{fill:#5e559d;}.cls-1,.cls-2{stroke-width:0px;}.cls-2{fill:#fff;}</style></defs><rect class="cls-1" x=".5" y=".5" width="177.55" height="177.55" rx="16.81" ry="16.81"></rect><path class="cls-2" d="m60.55,45.34c0-6.24,1.12-10.61,3.37-13.11,2.25-2.49,5.67-3.74,10.27-3.74,2.21,0,4.02.27,5.44.82,1.42.55,2.58,1.25,3.47,2.13.9.87,1.6,1.79,2.12,2.76.52.96.93,2.09,1.24,3.37.61,2.45.92,5,.92,7.66,0,5.96-1.01,10.32-3.02,13.08-2.02,2.76-5.49,4.15-10.42,4.15-2.76,0-5-.44-6.7-1.32-1.7-.88-3.1-2.17-4.19-3.88-.79-1.21-1.41-2.86-1.85-4.96-.44-2.1-.66-4.42-.66-6.96Zm9.05.02c0,4.18.37,7.04,1.11,8.57.74,1.53,1.81,2.3,3.21,2.3.93,0,1.73-.32,2.41-.97s1.18-1.68,1.5-3.08.48-3.59.48-6.56c0-4.36-.37-7.29-1.11-8.79-.74-1.5-1.85-2.25-3.33-2.25s-2.6.77-3.27,2.3c-.67,1.53-1.01,4.37-1.01,8.5Z"></path><path class="cls-2" d="m94.85,29.05h21.67v7.28h-14.68l-.78,4.93c1.02-.48,2.02-.84,3.01-1.08.99-.24,1.98-.36,2.95-.36,3.29,0,5.95.99,8,2.98,2.05,1.99,3.07,4.49,3.07,7.51,0,2.12-.53,4.16-1.58,6.12-1.05,1.96-2.55,3.45-4.48,4.48-1.93,1.03-4.41,1.55-7.43,1.55-2.17,0-4.02-.21-5.57-.62s-2.86-1.02-3.94-1.84-1.96-1.74-2.63-2.77c-.67-1.03-1.23-2.32-1.68-3.85l9.23-1.01c.22,1.48.75,2.6,1.57,3.37.82.77,1.8,1.15,2.94,1.15,1.27,0,2.32-.48,3.15-1.44s1.24-2.4,1.24-4.31-.42-3.39-1.25-4.3-1.95-1.37-3.34-1.37c-.88,0-1.73.22-2.55.65-.61.31-1.28.88-2.02,1.7l-7.77-1.12,2.89-17.66Z"></path><path class="cls-2" d="m57.42,81.16v-3.4h12.1v3.4h-5.1c-.44,2.38-1.05,4.59-1.84,6.7h6.02v16.28h-5.78v2.41h-3.26v-12.61c-.48.75-.99,1.46-1.46,2.14l-1.87-3.06c2.38-3.54,4.01-7.48,4.83-11.86h-3.64Zm7.92,19.89v-10.06h-2.52v10.06h2.52Zm11.39-8.3c-.34,6.8-2.35,11.83-5.95,15.09l-2.69-2.38c3.16-2.72,4.9-6.94,5.17-12.71h-3.3v-3.43h3.33v-8.36h-2.58v-3.33h16.42v3.33h-2.72v8.36h3.67v3.43h-3.67v14.92h-3.43v-14.92h-4.25Zm.03-11.8v8.36h4.22v-8.36h-4.22Z"></path><path class="cls-2" d="m98.42,83.13c1.33-.88,2.41-1.8,3.26-2.79h-8.53v-3.06h12.58v2.55c-1.05,2.11-2.69,3.98-4.93,5.54h3.64v8.81h-7.58l-.44,2.79h8.23c0,4.15-.2,6.94-.54,8.36-.41,1.39-2.11,2.18-5.13,2.31-1.19,0-2.38-.07-3.6-.14l-.85-3.13c1.22.07,2.45.14,3.71.14,1.67,0,2.62-.31,2.89-.85.2-.61.34-1.84.34-3.74h-8.43l1.16-8.74h7.17v-2.75h-6.39c-.82.27-1.6.58-2.41.85l-2.14-2.79c1.22-.34,2.35-.71,3.37-1.09v-.03h.07c.61-.24,1.22-.48,1.77-.71-.95-.75-2.04-1.53-3.26-2.31l2.58-1.63c1.39.88,2.55,1.67,3.5,2.41Zm18.49-5.37c-.82.92-1.6,1.67-2.41,2.24-.41.27-.92.58-1.46.92.44.34.92.65,1.39.99.61-.34,1.22-.68,1.84-1.09.78-.61,1.53-1.33,2.21-2.18l2.48,1.53c-.85,1.05-1.7,1.94-2.58,2.62-.34.24-.68.48-1.09.75,1.46.75,3.06,1.39,4.83,2.01l-2.38,2.82c-1.02-.41-1.94-.85-2.82-1.26v2.07c0,.61.41.92,1.29.92h1.7v2.86h-2.62c-2.24,0-3.33-1.02-3.33-3.06v-1.5h-3.88c0,1.09-.24,2.04-.68,2.92-.48.88-1.33,1.73-2.52,2.52l-2.41-2.14c1.09-.88,1.84-1.73,2.18-2.48.27-.78.44-2.01.44-3.71h6.94c-3.4-2.07-5.95-4.45-7.65-7.17l2.79-1.6c.48.78,1.05,1.53,1.73,2.24.51-.27,1.02-.58,1.5-.88.71-.54,1.39-1.16,2.04-1.9l2.48,1.56Zm1.6,16.52v2.96c-.61,1.77-1.5,3.37-2.69,4.76,1.97,1.09,3.77,2.18,5.37,3.26l-2.45,2.48c-1.46-1.16-3.2-2.31-5.24-3.54-1.9,1.43-4.18,2.62-6.87,3.5l-1.33-3.09c1.9-.61,3.57-1.36,5-2.24-1.29-.71-2.69-1.43-4.15-2.14l2.14-2.04c1.56.71,3.03,1.43,4.45,2.18.88-.88,1.6-1.87,2.18-2.96h-8.7v-3.13h12.27Z"></path><path class="cls-2" d="m84.99,120.33l-1.56,1.6h4.05v3.37h-10c.27,3.94.68,7,1.22,9.11.1.48.24.92.37,1.39,1.36-2.38,2.48-5.13,3.37-8.19l3.23,1.39c-1.33,4.32-3.03,7.99-5.1,11.01.31.68.65,1.29.99,1.8.95,1.46,1.7,2.21,2.21,2.21.34,0,.75-1.63,1.19-4.9l3.2,1.73c-.88,4.79-2.14,7.21-3.84,7.21-1.5,0-3.06-1.02-4.73-3.03-.48-.61-.95-1.29-1.36-2.04-2.24,2.45-4.83,4.32-7.75,5.61l-2.04-2.99c3.2-1.43,5.92-3.5,8.16-6.22-.48-1.19-.88-2.48-1.26-3.88-.75-2.72-1.22-6.15-1.5-10.23h-10.61v4.73h8.33c-.1,6.32-.44,10.27-1.02,11.83-.54,1.43-1.73,2.14-3.57,2.18-.82,0-1.73-.07-2.75-.17l-1.09-3.23c1.36.1,2.48.17,3.43.17.54-.03.92-.37,1.09-1.05.2-.78.31-2.92.37-6.39h-4.79c-.17,6.32-1.56,11.39-4.18,15.23l-2.69-2.41c2.11-3.09,3.2-7.41,3.3-12.92v-11.32h14.01c-.07-1.56-.07-3.23-.07-4.93h3.6c0,1.73.03,3.37.1,4.93h4.79c-.85-.95-1.94-1.97-3.26-2.99l2.24-2.14c1.53,1.16,2.82,2.35,3.91,3.54Z"></path><path class="cls-2" d="m118.14,118.15v13.97h-10.06v2.28h13.36v3.3h-10.57c2.38,2.62,6.15,5,11.35,7.1l-2.45,3.09c-5.44-2.99-9.32-6.32-11.69-9.93v10.5h-3.6v-10.5c-2.55,3.98-6.56,7.27-12,9.93l-2.04-3.3c5.03-1.84,8.77-4.15,11.22-6.9h-10.54v-3.3h13.36v-2.28h-10.13v-13.97h23.8Zm-13.67,5.54v-2.41h-6.6v2.41h6.6Zm0,3.06h-6.6v2.35h6.6v-2.35Zm3.6-3.06h6.53v-2.41h-6.53v2.41Zm6.53,3.06h-6.53v2.35h6.53v-2.35Z"></path></svg>