<svg xmlns="http://www.w3.org/2000/svg" id="_&#x5716;&#x5C64;_1" viewBox="0 0 178.55 178.55"><defs><style>.cls-1{fill:#5e559d;}.cls-1,.cls-2{stroke-width:0px;}.cls-2{fill:#fff;}</style></defs><rect class="cls-1" x=".5" y=".5" width="177.55" height="177.55" rx="16.81" ry="16.81"></rect><path class="cls-2" d="m60.83,46.06c0-6.24,1.12-10.61,3.37-13.11,2.25-2.49,5.67-3.74,10.27-3.74,2.21,0,4.03.27,5.44.82,1.42.55,2.58,1.25,3.47,2.13.9.87,1.6,1.79,2.12,2.76.51.96.93,2.09,1.24,3.37.61,2.45.92,5,.92,7.66,0,5.96-1.01,10.32-3.03,13.08-2.02,2.76-5.49,4.15-10.42,4.15-2.76,0-5-.44-6.7-1.32-1.7-.88-3.1-2.17-4.19-3.88-.79-1.21-1.41-2.86-1.85-4.96-.44-2.1-.66-4.42-.66-6.96Zm9.05.02c0,4.18.37,7.04,1.11,8.57.74,1.53,1.81,2.3,3.21,2.3.93,0,1.73-.32,2.41-.97s1.18-1.68,1.5-3.08.48-3.59.48-6.56c0-4.36-.37-7.29-1.11-8.79s-1.85-2.25-3.33-2.25-2.6.77-3.27,2.3c-.67,1.53-1.01,4.37-1.01,8.5Z"></path><path class="cls-2" d="m118.14,62.62h-27.38c.31-2.7,1.27-5.25,2.86-7.63,1.59-2.38,4.57-5.19,8.95-8.44,2.67-1.99,4.38-3.5,5.13-4.53s1.12-2.01,1.12-2.94c0-1-.37-1.86-1.11-2.57s-1.67-1.06-2.79-1.06-2.12.37-2.86,1.1-1.24,2.02-1.49,3.88l-9.14-.74c.36-2.57,1.02-4.57,1.97-6.02s2.3-2.55,4.04-3.32c1.74-.77,4.15-1.15,7.23-1.15s5.71.37,7.5,1.1c1.78.73,3.19,1.86,4.21,3.37,1.02,1.52,1.53,3.21,1.53,5.1,0,2-.59,3.91-1.76,5.74-1.17,1.82-3.3,3.82-6.4,6-1.84,1.27-3.07,2.16-3.69,2.67s-1.35,1.17-2.18,1.99h14.25v7.44Z"></path><path class="cls-2" d="m47.66,108.37h-3.47v-14.96c-.88,2.55-1.9,4.9-3.13,7.04l-1.5-3.64c2.04-2.99,3.54-6.36,4.45-10.13h-3.54v-3.37h3.71v-6.29h3.47v6.29h2.86v3.37h-2.86v1.63c1.33,1.46,2.65,3.09,3.94,4.86l-1.94,2.86c-.75-1.5-1.43-2.75-2.01-3.77v16.11Zm2.48-7.28l-.99-3.16c2.31-2.31,3.94-4.86,4.9-7.65l3.23.58c-.14.41-.31.78-.44,1.16h3.64c-.24-.48-.48-.88-.75-1.29l3.47-.51c.24.54.48,1.12.71,1.8h6.56v2.79h-6.25v1.56h5.24v2.55h-5.24v1.53h5.44v2.52h-5.44v1.63h6.93v2.86h-15.6v.82h-3.06v-9.52c-.75.82-1.53,1.6-2.35,2.35Zm6.05-22.47v-1.73h3.23v6.09h-3.23v-1.5h-5.64v-2.86h5.64Zm3.94,4.93v6.39h-8.4v-6.39h8.4Zm-2.58,2.35h-3.23v1.73h3.23v-1.73Zm3.54,8.91h-5.54v1.56h5.54v-1.56Zm0,4.11h-5.54v1.53h5.54v-1.53Zm0,5.68v-1.63h-5.54v1.63h5.54Zm9.01-21.04v6.36h-8.6v-6.36h8.6Zm-4.79-6.7v1.8h5.78v2.86h-5.78v1.46h-3.26v-6.12h3.26Zm2.21,9.04h-3.4v1.7h3.4v-1.7Z"></path><path class="cls-2" d="m80.61,85.79v-3.4c-1.63.27-3.3.44-4.93.58l-1.09-3.26c5.68-.48,10.2-1.39,13.56-2.72l1.73,2.92c-1.84.68-3.74,1.29-5.68,1.77v4.11h6.02v3.43h-6.02v.85c2.07,1.7,4.18,3.57,6.32,5.68l-2.07,3.2c-1.67-2.14-3.09-3.84-4.25-5.13v14.65h-3.6v-13.33c-1.5,2.72-3.3,5.2-5.47,7.51l-1.63-4.18c3.2-2.72,5.58-5.78,7.11-9.18v-.07h-6.22v-3.43h6.22Zm15.26-5.61v20.77h-3.54v-20.77h3.54Zm-.71,27.98l-.75-3.43c1.6.14,3.13.2,4.59.2.78,0,1.19-.48,1.19-1.43v-26.38h3.6v27.3c0,2.48-1.19,3.74-3.57,3.74h-5.07Z"></path><path class="cls-2" d="m121.07,78.28c-1.12,2.75-2.62,5.37-4.45,7.85v22.4h-3.54v-18.29c-1.33,1.33-2.75,2.62-4.25,3.88l-1.16-3.71c4.52-3.88,7.89-8.47,10.06-13.73l3.33,1.6Zm16.59,11.56l-10.64.65v12.68c0,.92.51,1.39,1.56,1.39h4.9c.75,0,1.29-.27,1.63-.75.34-.51.54-2.28.61-5.3l3.26,1.12c-.24,3.91-.68,6.29-1.33,7.1-.65.78-1.84,1.19-3.57,1.19h-6.36c-2.86,0-4.25-1.43-4.25-4.25v-26.42h3.54v9.86l10.64-.68v3.4Z"></path><path class="cls-2" d="m61.91,121.77c-.41-1.05-.85-2.11-1.36-3.13l3.4-.92c.58,1.5,1.02,2.82,1.36,4.05h4.22v3.2h-12.38v-3.2h4.76Zm6.9,26.96h-3.26v-1.43h-4.39v1.94h-3.26v-12.54h10.91v12.03Zm-.68-21.89v3.09h-9.66v-3.09h9.66Zm0,4.73v3.13h-9.66v-3.13h9.66Zm-2.58,12.61v-4.35h-4.39v4.35h4.39Zm21.83-25.09v3.33h-6.77v11.8h7.75v3.37h-7.75v11.73h-3.43v-11.73h-7.79v-3.37h7.79v-11.8h-6.8v-3.33h17Zm-11.32,13.16l-3.03.75c-.68-2.89-1.5-5.64-2.52-8.3l3.06-1.02c.92,2.48,1.73,5.34,2.48,8.57Zm11.15-7.82c-.71,3.23-1.6,6.05-2.65,8.5l-2.92-1.05c.95-2.18,1.77-4.96,2.48-8.29l3.09.85Z"></path><path class="cls-2" d="m101.21,119.08c-.88,2.69-2.01,5.24-3.37,7.62v22.64h-3.57v-17.41c-.82,1.02-1.7,2.04-2.58,2.99l-1.19-3.77c3.3-3.88,5.75-8.4,7.34-13.63l3.37,1.56Zm8.09,5.1v-6.32h3.6v6.32h9.32v3.43h-9.32v6.12h7.41v15.54h-3.5v-1.33h-11.18v1.33h-3.54v-15.54h7.21v-6.12h-8.91v-3.43h8.91Zm7.51,20.36v-7.45h-11.18v7.45h11.18Z"></path></svg>