<svg xmlns="http://www.w3.org/2000/svg" id="_&#x5716;&#x5C64;_1" viewBox="0 0 178.55 178.55"><defs><style>.cls-1{fill:#5e559d;}.cls-1,.cls-2{stroke-width:0px;}.cls-2{fill:#fff;}</style></defs><rect class="cls-1" x=".5" y=".5" width="177.55" height="177.55" rx="16.81" ry="16.81"></rect><path class="cls-2" d="m61.71,46.1c0-6.24,1.12-10.61,3.37-13.11,2.25-2.49,5.67-3.74,10.27-3.74,2.21,0,4.03.27,5.44.82,1.42.55,2.58,1.25,3.47,2.13.9.87,1.6,1.79,2.12,2.76.51.96.93,2.09,1.24,3.37.61,2.45.92,5,.92,7.66,0,5.96-1.01,10.32-3.03,13.08-2.02,2.76-5.49,4.15-10.42,4.15-2.76,0-5-.44-6.7-1.32-1.7-.88-3.1-2.17-4.19-3.88-.79-1.21-1.41-2.86-1.85-4.96-.44-2.1-.66-4.42-.66-6.96Zm9.05.02c0,4.18.37,7.04,1.11,8.57.74,1.53,1.81,2.3,3.21,2.3.93,0,1.73-.32,2.41-.97s1.18-1.68,1.5-3.08.48-3.59.48-6.56c0-4.36-.37-7.29-1.11-8.79s-1.85-2.25-3.33-2.25-2.6.77-3.27,2.3c-.67,1.53-1.01,4.37-1.01,8.5Z"></path><path class="cls-2" d="m108,56.52h-16.62v-7.51l16.62-19.76h7.95v20.19h4.12v7.08h-4.12v6.14h-7.95v-6.14Zm0-7.08v-10.34l-8.78,10.34h8.78Z"></path><path class="cls-2" d="m19.13,100.07c-.2,3.06-.61,5.78-1.29,8.16l-2.86-.88c.71-2.24,1.16-4.79,1.36-7.65l2.79.37Zm8.67-2.79l-2.82.71c-.1-.54-.2-1.05-.31-1.53-2.99.88-5.81,1.5-8.47,1.84l-.92-3.13c.61-.24,1.16-.58,1.56-.99.95-.92,2.11-2.45,3.5-4.62-1.39.24-2.82.48-4.32.71l-.85-3.16c.54-.24,1.05-.68,1.46-1.29,1.46-2.72,2.72-5.75,3.77-9.01l3.33,1.26c-1.5,3.57-3.03,6.49-4.59,8.8,1.02-.14,2.07-.31,3.09-.51.71-1.26,1.46-2.62,2.28-4.11l3.23,1.26c-2.99,5.1-5.47,8.84-7.48,11.15,1.26-.24,2.52-.51,3.74-.78-.2-.82-.44-1.6-.68-2.35l2.65-.92c.68,1.94,1.26,4.15,1.8,6.66Zm-3.71,9.18l-2.96.75c-.27-2.79-.61-5.24-.95-7.34l2.58-.54c.48,2.21.92,4.59,1.33,7.14Zm4.52-2.31l-2.72,1.26c-.58-2.35-1.19-4.42-1.87-6.22l2.48-.82c.78,1.8,1.5,3.74,2.11,5.78Zm4.73,4.25h-3.5v-17.88c-.61,1.09-1.22,2.11-1.84,3.09l-1.22-3.88c2.07-3.84,3.54-8.06,4.35-12.61l3.37.68c-.34,1.63-.78,3.2-1.26,4.73h4.96c-.54-1.6-1.12-3.16-1.8-4.66l3.43-.92c.75,2.04,1.29,3.91,1.7,5.58h4.66v3.4h-4.96v3.6h4.08v3.26h-4.08v3.5h4.25v3.26h-4.25v3.84h5.3v3.4h-13.19v1.6Zm0-22.47v3.6h4.42v-3.6h-4.42Zm0,10.37h4.42v-3.5h-4.42v3.5Zm0,7.1h4.42v-3.84h-4.42v3.84Z"></path><path class="cls-2" d="m56.77,81.03h3.23v3.13h-10.5v-3.13h3.91c-.41-1.09-.85-2.14-1.33-3.16l3.37-.92c.58,1.5,1.02,2.86,1.33,4.08Zm2.65,25.4h-5.95v1.56h-3.2v-12h9.14v10.44Zm-.37-20.23v2.92h-8.4v-2.92h8.4Zm0,4.73v2.92h-8.4v-2.92h8.4Zm-2.75,12.58v-4.66h-2.82v4.66h2.82Zm9.52-24.95v-1.56h3.13v5.64l2.45-.37v-5.27h3.13v1.56h5.34v2.79h-5.34v1.67h-2.55c.17.41.34.82.51,1.26h7.24v2.31h-6.73v1.33h5.41v2.04h-5.41v1.29h5.41v2.01h-5.41v1.36h6.97v2.28h-17.58v-6.63c-.61.75-1.19,1.46-1.8,2.07l-1.9-2.24c1.8-1.77,3.37-4.28,4.66-7.51l2.92.65-.44,1.05h3.6c-.2-.44-.41-.85-.65-1.26h-2.96v-1.67h-5.27v-2.79h5.27Zm-4.32,21.93v-2.48h16.93v2.35c-.92,1.46-2.31,2.79-4.18,3.94,2.01.61,4.21,1.12,6.63,1.53l-1.87,2.75c-3.2-.65-5.95-1.5-8.33-2.55-2.65,1.05-5.85,1.94-9.65,2.62l-1.22-2.96c2.79-.41,5.24-.92,7.34-1.53-1.7-1.09-3.16-2.31-4.32-3.67h-1.33Zm8.5-13.9h-4.69v1.33h4.69v-1.33Zm0,3.37h-4.69v1.29h4.69v-1.29Zm0,3.3h-4.69v1.36h4.69v-1.36Zm4.62,7.24h-7.96c1.16.88,2.48,1.7,3.98,2.41,1.63-.71,2.96-1.53,3.98-2.41Z"></path><path class="cls-2" d="m98.01,77.09l-11.8,31.28h-3.37l11.83-31.28h3.33Z"></path><path class="cls-2" d="m109.03,85.25v2.75c-1.02,1.7-2.24,3.37-3.6,5.07h3.94v2.31c-.48,2.45-.99,4.49-1.6,6.05.27.2.51.41.75.61,1.09.95,2.11,1.63,3.06,2.04.99.34,2.38.54,4.22.61,1.84.03,3.94.07,6.32.07s5.64-.1,9.59-.27l-.82,3.33h-8.33c-2.31,0-4.62-.07-6.9-.14-2.31-.07-4.05-.31-5.24-.75-1.43-.54-2.69-1.36-3.84-2.48-.24-.24-.51-.34-.78-.34-.61,0-1.67,1.46-3.09,4.39l-2.55-2.38c1.53-2.92,2.99-4.66,4.42-5.24.61-1.5,1.09-3.09,1.46-4.86h-4.79v-2.65c1.56-1.77,2.89-3.4,3.91-4.93h-4.45v-3.2h8.33Zm-.2-3.23l-2.28,2.28c-1.22-1.5-2.96-3.16-5.17-4.93l2.31-2.18c2,1.6,3.71,3.2,5.13,4.83Zm21.83,1.9h-1.84v1.43h-6.73v1.26h7.04v10.61h-7.04v1.36h8.6v2.89h-8.6v2.79h-3.4v-2.79h-8.6v-2.89h8.6v-1.36h-7.07v-10.61h7.07v-1.26h-6.66v-1.26h-2.01v-6.02h20.64v5.85Zm-11.97-1.33v-1.67h-5.27v1.67h5.27Zm0,8.09v-1.43h-3.67v1.43h3.67Zm0,2.48h-3.67v1.36h3.67v-1.36Zm3.4-10.57h5.17v-1.67h-5.17v1.67Zm0,8.09h3.64v-1.43h-3.64v1.43Zm3.64,2.48h-3.64v1.36h3.64v-1.36Z"></path><path class="cls-2" d="m136.84,108.3l-2.72-2.45c2.01-2.86,3.03-6.49,3.09-10.91v-16.83h26.35v25.67c0,2.62-1.36,3.94-4.05,3.94h-3.91l-.95-3.47c1.36.14,2.58.2,3.74.2,1.02,0,1.56-.68,1.56-1.97v-4.73h-8.09v9.59h-3.6v-9.59h-7.65c-.44,4.22-1.7,7.75-3.77,10.54Zm3.94-26.72v4.76h7.48v-4.76h-7.48Zm0,12.92h7.48v-4.9h-7.48v4.9Zm19.17-12.92h-8.09v4.76h8.09v-4.76Zm0,8.02h-8.09v4.9h8.09v-4.9Z"></path><path class="cls-2" d="m71.66,123.63v-1.33h-13.12v-2.72h13.12v-1.84h3.54v1.84h13.12v2.72h-13.12v1.33h10.3v10.3h-.48c1.29,1.43,2.28,2.72,2.99,3.84l-2.35,1.6c-.37-.58-.78-1.16-1.22-1.77l-2.52.1v2.14h6.73v2.89h-6.73v3.37c0,2.04-1.16,3.09-3.43,3.09h-3.67l-.71-3.2c1.16.14,2.24.2,3.26.2.68,0,1.05-.34,1.05-.95v-2.52h-10.91c1.6,1.02,2.96,2.04,4.11,3.06l-2.41,2.45c-1.16-1.33-2.82-2.72-4.96-4.22l1.33-1.29h-7.38v-2.89h20.23v-1.97c-5.88.24-11.97.44-18.22.65l-.68-2.79c4.11-.07,8.16-.17,12.14-.27v-1.53h-10.3v-10.3h10.3Zm0,3.88v-1.5h-6.87v1.5h6.87Zm0,2.35h-6.87v1.5h6.87v-1.5Zm3.54-2.35h6.87v-1.5h-6.87v1.5Zm6.87,2.35h-6.87v1.5h6.87v-1.5Zm-.14,4.62l.88-.54h-7.62v1.43l7.24-.27-.51-.61Z"></path><path class="cls-2" d="m98.49,126.63v-3.4c-1.63.27-3.3.44-4.93.58l-1.09-3.26c5.68-.48,10.2-1.39,13.56-2.72l1.73,2.92c-1.84.68-3.74,1.29-5.68,1.77v4.11h6.02v3.43h-6.02v.85c2.07,1.7,4.18,3.57,6.32,5.68l-2.07,3.2c-1.67-2.14-3.09-3.84-4.25-5.13v14.65h-3.6v-13.33c-1.5,2.72-3.3,5.2-5.47,7.51l-1.63-4.18c3.2-2.72,5.58-5.78,7.1-9.18v-.07h-6.22v-3.43h6.22Zm15.26-5.61v20.77h-3.54v-20.77h3.54Zm-.71,27.98l-.75-3.43c1.6.14,3.13.2,4.59.2.78,0,1.19-.48,1.19-1.43v-26.38h3.6v27.3c0,2.48-1.19,3.74-3.57,3.74h-5.07Z"></path></svg>