<svg xmlns="http://www.w3.org/2000/svg" id="_&#x5716;&#x5C64;_1" viewBox="0 0 178.55 178.55"><defs><style>.cls-1{fill:#5e559d;}.cls-1,.cls-2{stroke-width:0px;}.cls-2{fill:#fff;}</style></defs><rect class="cls-1" x=".5" y=".5" width="177.55" height="177.55" rx="16.81" ry="16.81"></rect><path class="cls-2" d="m60.3,46.1c0-6.24,1.12-10.61,3.37-13.11,2.25-2.49,5.67-3.74,10.27-3.74,2.21,0,4.03.27,5.44.82,1.42.55,2.58,1.25,3.47,2.13.9.87,1.6,1.79,2.12,2.76.51.96.93,2.09,1.24,3.37.61,2.45.92,5,.92,7.66,0,5.96-1.01,10.32-3.03,13.08-2.02,2.76-5.49,4.15-10.42,4.15-2.76,0-5-.44-6.7-1.32-1.7-.88-3.1-2.17-4.19-3.88-.79-1.21-1.41-2.86-1.85-4.96-.44-2.1-.66-4.42-.66-6.96Zm9.05.02c0,4.18.37,7.04,1.11,8.57.74,1.53,1.81,2.3,3.21,2.3.93,0,1.73-.32,2.41-.97s1.18-1.68,1.5-3.08.48-3.59.48-6.56c0-4.36-.37-7.29-1.11-8.79s-1.85-2.25-3.33-2.25-2.6.77-3.27,2.3c-.67,1.53-1.01,4.37-1.01,8.5Z"></path><path class="cls-2" d="m99.75,39.31l-8.63-1.55c.72-2.75,2.1-4.85,4.13-6.32,2.04-1.46,4.93-2.2,8.66-2.2,4.29,0,7.39.8,9.3,2.4,1.91,1.6,2.87,3.61,2.87,6.03,0,1.42-.39,2.7-1.17,3.85-.78,1.15-1.95,2.16-3.52,3.02,1.27.31,2.24.68,2.91,1.1,1.09.67,1.94,1.56,2.54,2.65.61,1.1.91,2.41.91,3.93,0,1.91-.5,3.75-1.5,5.5-1,1.76-2.44,3.11-4.32,4.06-1.88.95-4.35,1.42-7.42,1.42s-5.34-.35-7.07-1.05c-1.73-.7-3.14-1.73-4.26-3.08-1.11-1.35-1.97-3.05-2.57-5.1l9.12-1.21c.36,1.84.92,3.11,1.67,3.82.75.71,1.71,1.06,2.88,1.06,1.22,0,2.24-.45,3.06-1.34.81-.9,1.22-2.09,1.22-3.58s-.39-2.7-1.18-3.54-1.85-1.25-3.19-1.25c-.72,0-1.7.18-2.96.54l.47-6.52c.51.07.9.11,1.19.11,1.2,0,2.19-.38,2.99-1.14s1.2-1.67,1.2-2.71-.3-1.8-.9-2.4c-.6-.6-1.42-.9-2.46-.9s-1.95.33-2.62.97c-.67.65-1.13,1.79-1.37,3.42Z"></path><path class="cls-2" d="m73.89,77.19v4.69h10.78v19.68h-3.5v-1.73h-7.28v8.5h-3.6v-8.5h-7.41v1.97h-3.5v-19.92h10.91v-4.69h3.6Zm-3.6,12.04v-4.05h-7.41v4.05h7.41Zm0,7.27v-4.11h-7.41v4.11h7.41Zm10.88-7.27v-4.05h-7.28v4.05h7.28Zm0,7.27v-4.11h-7.28v4.11h7.28Z"></path><path class="cls-2" d="m94.73,81c-.44-1.05-.95-2.11-1.5-3.13l3.37-.92c.68,1.5,1.19,2.82,1.53,4.05h3.5v3.2h-11.18v-3.2h4.28Zm6.26,25.46h-6.39v1.53h-3.26v-12.04h9.66v10.5Zm-.37-20.3v2.99h-8.94v-2.99h8.94Zm0,4.73v2.99h-8.94v-2.99h8.94Zm-2.86,12.58v-4.59h-3.16v4.59h3.16Zm6.15,5.1l-2.55-2.35c1.9-1.84,2.86-4.22,2.92-7.07v-7.41h15.26v13.53c0,2.04-1.22,3.06-3.6,3.06h-3.6l-.85-3.06c1.29.07,2.45.14,3.5.14.75,0,1.16-.48,1.16-1.36v-.85h-9.11c-.61,2.07-1.67,3.88-3.13,5.37Zm9.72-31.55v1.9h7.21v2.86h-7.21v1.43h6.08v2.79h-6.08v1.5h8.12v2.92h-19.89v-2.92h8.23v-1.5h-6.12v-2.79h6.12v-1.43h-7.31v-2.86h7.31v-1.9h3.54Zm-6.02,21.93c0,.54-.03,1.05-.1,1.6h8.63v-1.67h-8.53v.07Zm8.53-4.42h-8.53v1.7h8.53v-1.7Z"></path><path class="cls-2" d="m70.25,123.63v-1.33h-13.12v-2.72h13.12v-1.84h3.54v1.84h13.12v2.72h-13.12v1.33h10.3v10.3h-.48c1.29,1.43,2.28,2.72,2.99,3.84l-2.35,1.6c-.37-.58-.78-1.16-1.22-1.77l-2.52.1v2.14h6.73v2.89h-6.73v3.37c0,2.04-1.16,3.09-3.43,3.09h-3.67l-.71-3.2c1.16.14,2.24.2,3.26.2.68,0,1.05-.34,1.05-.95v-2.52h-10.91c1.6,1.02,2.96,2.04,4.11,3.06l-2.41,2.45c-1.16-1.33-2.82-2.72-4.96-4.22l1.33-1.29h-7.38v-2.89h20.23v-1.97c-5.88.24-11.97.44-18.22.65l-.68-2.79c4.11-.07,8.16-.17,12.14-.27v-1.53h-10.3v-10.3h10.3Zm0,3.88v-1.5h-6.87v1.5h6.87Zm0,2.35h-6.87v1.5h6.87v-1.5Zm3.54-2.35h6.87v-1.5h-6.87v1.5Zm6.87,2.35h-6.87v1.5h6.87v-1.5Zm-.14,4.62l.88-.54h-7.62v1.43l7.24-.27-.51-.61Z"></path><path class="cls-2" d="m97.08,126.63v-3.4c-1.63.27-3.3.44-4.93.58l-1.09-3.26c5.68-.48,10.2-1.39,13.56-2.72l1.73,2.92c-1.84.68-3.74,1.29-5.68,1.77v4.11h6.02v3.43h-6.02v.85c2.07,1.7,4.18,3.57,6.32,5.68l-2.07,3.2c-1.67-2.14-3.09-3.84-4.25-5.13v14.65h-3.6v-13.33c-1.5,2.72-3.3,5.2-5.47,7.51l-1.63-4.18c3.2-2.72,5.58-5.78,7.1-9.18v-.07h-6.22v-3.43h6.22Zm15.26-5.61v20.77h-3.54v-20.77h3.54Zm-.71,27.98l-.75-3.43c1.6.14,3.13.2,4.59.2.78,0,1.19-.48,1.19-1.43v-26.38h3.6v27.3c0,2.48-1.19,3.74-3.57,3.74h-5.07Z"></path></svg>