<svg xmlns="http://www.w3.org/2000/svg" id="_&#x5716;&#x5C64;_1" viewBox="0 0 178.55 178.55"><defs><style>.cls-1{fill:#5e559d;}.cls-1,.cls-2{stroke-width:0px;}.cls-2{fill:#fff;}</style></defs><rect class="cls-1" x=".5" y=".5" width="177.55" height="177.55" rx="16.81" ry="16.81"></rect><path class="cls-2" d="m60.72,46.06c0-6.24,1.12-10.61,3.37-13.11,2.25-2.49,5.67-3.74,10.27-3.74,2.21,0,4.02.27,5.44.82,1.42.55,2.58,1.25,3.47,2.13.9.87,1.6,1.79,2.12,2.76s.93,2.09,1.24,3.37c.61,2.45.92,5,.92,7.66,0,5.96-1.01,10.32-3.02,13.08-2.02,2.76-5.49,4.15-10.42,4.15-2.76,0-5-.44-6.7-1.32-1.7-.88-3.1-2.17-4.19-3.88-.79-1.21-1.41-2.86-1.85-4.96s-.66-4.42-.66-6.96Zm9.05.02c0,4.18.37,7.04,1.11,8.57s1.81,2.3,3.21,2.3c.93,0,1.73-.32,2.41-.97s1.18-1.68,1.5-3.08.48-3.59.48-6.56c0-4.36-.37-7.29-1.11-8.79-.74-1.5-1.85-2.25-3.33-2.25s-2.6.77-3.27,2.3-1.01,4.37-1.01,8.5Z"></path><path class="cls-2" d="m112.01,29.21v33.41h-9.23v-21.89c-1.49,1.14-2.94,2.05-4.33,2.76-1.4.7-3.15,1.37-5.25,2.02v-7.48c3.11-1,5.52-2.2,7.24-3.61,1.72-1.4,3.06-3.14,4.03-5.2h7.55Z"></path><path class="cls-2" d="m58,108.09l-.75-3.3c.85.14,1.67.2,2.48.2.75,0,1.12-.44,1.12-1.33v-6.83c-1.16.44-2.35.85-3.5,1.26l-.92-3.5c1.5-.34,2.96-.78,4.42-1.26v-7.04h-3.74v-3.43h3.74v-5.81h3.47v5.81h3.2v3.43h-3.2v5.64c1.09-.51,2.18-1.05,3.26-1.67v3.47c-1.09.58-2.18,1.12-3.26,1.63v9.18c0,2.35-1.16,3.54-3.4,3.54h-2.92Zm18.22-26.52v-4.45h3.47v4.45h7.85v3.37h-7.85v4.59h6.56v3.13c-1.02,3.5-2.79,6.49-5.24,9.01,2.04,1.46,4.56,2.75,7.48,3.91l-1.84,2.96c-3.23-1.43-5.95-2.99-8.13-4.69-2.55,1.94-5.64,3.54-9.28,4.79l-1.67-2.99c3.3-1.02,6.12-2.35,8.43-4.01-2.58-2.62-4.32-5.54-5.2-8.77h-1.77v-3.33h7.17v-4.59h-7.85v-3.37h7.85Zm2.21,17.98c1.9-1.9,3.37-4.15,4.35-6.7h-8.63c.78,2.48,2.21,4.73,4.28,6.7Z"></path><path class="cls-2" d="m99.95,78.48c-1.63,3.6-4.35,6.87-8.23,9.79l-1.02-3.33c2.86-2.21,5-4.83,6.39-7.82l2.86,1.36Zm-.07,8.43v-2.62h4.49v-7.14h3.23v7.14h4.25v3.2h-4.25v20.87h-3.23v-20.87h-4.42c-.61,1.36-1.33,2.65-2.18,3.88v16.96h-3.33v-13.09c-.88.82-1.77,1.6-2.69,2.35l-1.02-3.26c2.99-2.45,5.24-5.3,6.66-8.6l2.48,1.19Zm3.06,2.28v5.95c-.07,5.13-.95,8.87-2.72,11.25l-2.14-1.87c1.39-1.94,2.11-5.07,2.14-9.38v-5.95h2.72Zm9.62-6.49l-2.31,1.02c-.65-1.77-1.36-3.3-2.14-4.62l2.41-.85c.75,1.36,1.43,2.86,2.04,4.45Zm-.88,6.39v12c0,.37.27.58.88.58h1.6v2.55h-2.62c-1.7,0-2.52-.95-2.52-2.79v-12.34h2.65Zm2.45,19.07l-.78-3.26c.75.14,1.5.24,2.18.24.61,0,.92-.31.92-.88v-13.16h-3.81v-3.37h9.49v3.37h-2.28v14.01c0,2.04-1.05,3.06-3.16,3.06h-2.55Zm7.48-29.24v3.3h-8.63v-3.3h8.63Z"></path><path class="cls-2" d="m58.03,148.96l-.78-3.43c.88.14,1.73.2,2.55.2.75,0,1.12-.41,1.12-1.16v-6.83c-1.09.41-2.21.82-3.37,1.19l-.88-3.6c1.43-.34,2.86-.75,4.25-1.22v-6.73h-3.71v-3.43h3.71v-6.02h3.6v6.02h3.03v3.43h-3.03v5.24c.82-.41,1.63-.85,2.45-1.26v3.6l-2.45,1.22v9.32c0,2.31-1.19,3.47-3.5,3.47h-2.99Zm29.17-16.15v3.16h-8.02v2.82h6.49v3.13h-6.49v3.3c1.22.14,2.62.24,4.22.24,1.87,0,3.47-.1,4.76-.24l-.99,3.43c-1.29,0-2.48-.03-3.54-.07-4.56-.03-7.65-.44-9.35-1.26-1.16-.58-2.18-1.6-3.13-3.06-.75,1.77-1.7,3.43-2.89,5l-2.65-2.31c2.38-2.99,3.71-6.32,3.98-10l3.13.37c-.07,1.22-.24,2.38-.48,3.47,1.02,1.84,2.14,3.03,3.43,3.57,0,0,.03.03.07.03v-8.43h-8.16v-3.16h19.62Zm-2.01-13.97v12.41h-15.43v-12.41h15.43Zm-3.47,4.86v-2.01h-8.53v2.01h8.53Zm0,2.65h-8.53v2.04h8.53v-2.04Z"></path><path class="cls-2" d="m102.06,143.25c-2.24,2.07-4.96,3.91-8.23,5.47l-2.18-2.82c3.2-1.33,5.88-2.89,8.06-4.69l2.35,2.04Zm2.65-5.51v-2.35h3.6v2.35h12.85v3.06h-12.85v8.53h-3.6v-8.53h-12.95v-3.06h12.95Zm2.41-13.43c-.48.54-.88,1.09-1.29,1.6h14.28v2.79h-5.47c-1.02,1.29-2.04,2.35-3.13,3.2,2.72.65,5.51,1.43,8.4,2.35l-2.01,2.72c-3.26-1.16-6.56-2.18-9.86-3.06-3.57,1.6-8.16,2.45-13.8,2.55l-1.9-2.92c4.56,0,8.16-.31,10.81-.88-2.04-.48-4.08-.92-6.08-1.29.85-.88,1.67-1.77,2.45-2.65h-6.66v-2.79h9.04c.71-.88,1.39-1.77,2.04-2.58l3.2.99Zm13.26,1.12h-3.33v-2.31h-21.21v2.31h-3.33v-5.24h12.07c-.41-.71-.82-1.39-1.26-2.01l3.67-.61c.37.78.75,1.67,1.12,2.62h12.27v5.24Zm-9.72,3.26h-7.28c-.41.44-.82.85-1.16,1.22,1.73.27,3.5.65,5.34,1.05,1.22-.68,2.24-1.46,3.09-2.28Zm10.23,17.58l-2.45,2.48c-1.77-1.7-4.28-3.54-7.48-5.47l2.14-2.07c3.06,1.7,5.68,3.4,7.79,5.07Z"></path></svg>