<svg id="圖層_1" data-name="圖層 1" xmlns="http://www.w3.org/2000/svg" viewBox="0 0 300 105"><defs><style>.cls-1{fill:#006cb6;}.cls-1,.cls-2{fill-rule:evenodd;}.cls-2{fill:#00a0e8;}</style></defs><path class="cls-1" d="M13.52,103.61H5.08V85.76l2.66,1.07,5.78,2.3v14.48ZM5.08,78.8V74.26h8.44v1.18l-5.78,2.3Z"/><path class="cls-1" d="M62.07,97.24c0,7.14-9,10.23-14.9,3.73L32.89,85.12c-.9-1-3.28-3.05-3.28-.29v18.78H21.29V80.22c0-6.25,9.69-9,14.61-3.7L50.28,92.07c1.25,1.35,3.35,2.69,3.35-.24V74.26h8.44Z"/><path class="cls-1" d="M111.2,97.24c0,7.14-9,10.23-14.9,3.73L82,85.12c-.9-1-3.29-3.05-3.29-.29v18.78H70.43V80.22c0-6.25,9.69-9,14.61-3.7L99.42,92.07c1.24,1.35,3.34,2.69,3.34-.24V74.26h8.44Z"/><path class="cls-2" d="M162.36,81.87c3.8-.25,10.76.33,14.85,4.42,2.94,3.19,4,4.37,6.92,7.56l3.47,3.47c-3.61,1.54-9.12,3.72-12.73,5.26l-7.4-14.41C166.52,86.33,164.22,83.05,162.36,81.87Z"/><path class="cls-1" d="M174.87,102.58c12.46-12.46,30-37.11,47.57-36.26-3.74,2.34-8.11,7.09-13.55,16.52-5,8.68-3.65,6.38-8.63,15.07-1.77,3.07-3.33,4.62-5.67,4.62C187,102.5,182.47,102.61,174.87,102.58Z"/><path class="cls-1" d="M257.53,74.26v18.3a11.11,11.11,0,0,1-11.09,11.09H231.12A11.11,11.11,0,0,1,220,92.56V74.26h8.44v18.3a2.63,2.63,0,0,0,.78,1.86,2.61,2.61,0,0,0,1.87.79h15.32a2.61,2.61,0,0,0,1.87-.79,2.63,2.63,0,0,0,.78-1.86V74.26Z"/><path class="cls-1" d="M130.56,74.23h17.66a11.35,11.35,0,0,1,11.33,11.33v6.85a11.3,11.3,0,0,1-3.32,8h0a11.29,11.29,0,0,1-8,3.33H130.56a11.29,11.29,0,0,1-8-3.33h0a11.3,11.3,0,0,1-3.32-8V85.56a11.35,11.35,0,0,1,11.33-11.33Zm17.66,8.44H130.56a2.9,2.9,0,0,0-2.89,2.89v6.85a2.89,2.89,0,0,0,.84,2,2.92,2.92,0,0,0,2.05.85h17.66a2.92,2.92,0,0,0,2.05-.85,2.89,2.89,0,0,0,.84-2V85.56a2.9,2.9,0,0,0-2.89-2.89Z"/><path class="cls-1" d="M299,81.32H277.53a3.88,3.88,0,0,0-2.45.79,1.58,1.58,0,0,0-.64,1.14v1.68h23.92v7.55H274.51v1.68a1.57,1.57,0,0,0,.65,1.14,3.79,3.79,0,0,0,2.44.79H299v7.55H277.61a11.38,11.38,0,0,1-7.25-2.56A9,9,0,0,1,267,94.16l-.08-10.91a9,9,0,0,1,3.38-6.92,11.43,11.43,0,0,1,7.26-2.56H299Z"/><polygon class="cls-2" points="0.97 82.28 8.37 79.33 15.77 76.38 15.77 82.28 15.77 88.19 8.37 85.24 0.97 82.28"/><path class="cls-1" d="M98.48,39.56H93.16a46.35,46.35,0,0,1-5.31,17h6.31A51.36,51.36,0,0,0,98.48,39.56Z"/><path class="cls-1" d="M117,37.5V33h-11.1V28.32c2.46-.19,7.11-.73,9.44-1V22.67A222.4,222.4,0,0,1,90.9,24.6v4.52c3-.13,6.32-.2,9.11-.33V33H87.91V37.5H100V58.7h5.85V37.5Z"/><path class="cls-1" d="M130,47.6h-6.45a34,34,0,0,1-6.91,11.1h7.58A46.62,46.62,0,0,0,130,47.6Z"/><path class="cls-1" d="M145.83,58.7a35.59,35.59,0,0,1-6-11.1h-6.32a61.6,61.6,0,0,0,4.85,11.1Z"/><path class="cls-1" d="M98.33,16.16H115.5v4.32H96.09a6.19,6.19,0,0,1-4.52-1.73A6.35,6.35,0,0,1,90,14.17V.67h5.79v10.7A43.86,43.86,0,0,0,106.59,2h8.24C110,7.42,104.71,12.53,98.33,16.16Z"/><path class="cls-1" d="M145.74,5.92V1.6H116.56V5.92h12.3a29.28,29.28,0,0,1-1.8,6.85h-2.39c-2.06,0-3.59.4-4.65,1.46a6.35,6.35,0,0,0-1.6,4.72V38.83a6.64,6.64,0,0,0,1.47,4.58,6.07,6.07,0,0,0,4.78,1.87H137.3a6.41,6.41,0,0,0,4.79-1.8,5.17,5.17,0,0,0,1.33-3.66V18.75a6.11,6.11,0,0,0-1.53-4.32,5.92,5.92,0,0,0-4.45-1.66h-4.06a59.6,59.6,0,0,0,1.8-6.85Zm-8.17,16.16H124.14V18.49a1.48,1.48,0,0,1,1.4-1.53h10.63a1.44,1.44,0,0,1,1.4,1.53v3.59Zm0,9.57H124.14V26.26h13.43v5.39Zm.06,7.71A1.58,1.58,0,0,1,136.24,41h-10.7a1.5,1.5,0,0,1-1.4-1.39V35.77h13.49Z"/><path class="cls-1" d="M216.78,58.57a76.15,76.15,0,0,1-10.17-16.09c3.85-8.77,5.52-18.41,6.25-28.51h3V9.65H200.56c.53-2.86,1.2-6.72,1.46-9.18h-5.85a99.76,99.76,0,0,1-6.38,24.33H194a135.79,135.79,0,0,0,6.25,17.68,75.32,75.32,0,0,1-11.9,16.22H196a93.73,93.73,0,0,0,7.31-9.77c1.86,3.26,3.79,6.52,5.92,9.64ZM198.23,19.26c.63-2.07.94-3.5,1.4-5.29H207a90.13,90.13,0,0,1-3.59,20.6c-2-5.08-4.23-11.82-5.19-15.31Zm-6.51,24.42h-5a34.41,34.41,0,0,1-8.44,9.44,95.58,95.58,0,0,0,11.13,5.58h-13c-.53-.2-2.21-1.92-2.81-2.26-.93.67-2.4,1.6-3.33,2.13h-13a59.16,59.16,0,0,0,11.16-5,44.67,44.67,0,0,1-6-3.92c-1-.87-.73-2.4-.13-3.33a22.22,22.22,0,0,1,2.06-2.59h-6.25V39.76h9.5c.87-1.07,1.8-2.26,2.66-3.33H164.2a4.72,4.72,0,0,1-3.06-1,3.55,3.55,0,0,1-1.4-2.86V28.66a3.64,3.64,0,0,1,1.53-3.19,6.18,6.18,0,0,1,3.53-.93h7V21.88h-6.45a4.63,4.63,0,0,1-3-1.2,3.71,3.71,0,0,1-1.4-2.86V14.56h-2.86V10.71h2.86V8.18a4.86,4.86,0,0,1,1.13-3.12,3.68,3.68,0,0,1,2.79-1.4h6.92V.47h5.51V3.66h6.92a4.09,4.09,0,0,1,3.19,1.4,4.41,4.41,0,0,1,1.13,3v2.66h3.12v3.85h-3.12v2.73a4.59,4.59,0,0,1-1.27,3.32A4.18,4.18,0,0,1,184,21.88h-6.72v2.66h8.31a3.88,3.88,0,0,1,3.06,1.66,4.35,4.35,0,0,1,.8,2.52v2.93a5,5,0,0,1-1,3.46,4.44,4.44,0,0,1-3.65,1.32h-7.38a21.07,21.07,0,0,0-2.79,3.33h17.08v3.92Zm-8.84-33V8.85c0-.8-.4-1.27-1.13-1.27h-4.46v3.13Zm0,5.85v-2h-5.59v3.19h4.46a1.17,1.17,0,0,0,1.13-1.19Zm-11.1-5.85V7.58h-4.26a1.24,1.24,0,0,0-1.06,1.27v1.86Zm0,7V14.56h-5.32v2a1.22,1.22,0,0,0,1.13,1.19ZM184,31.25V29.79a1.27,1.27,0,0,0-1.27-1.27h-5.45v3.93h5.52a1.29,1.29,0,0,0,1.2-1.2Zm-12.23,1.2V28.52h-5.25a1.24,1.24,0,0,0-1.2,1.2v1.73a1.14,1.14,0,0,0,1,1ZM180,43.68h-8.58A36.36,36.36,0,0,0,168.92,47a.44.44,0,0,0,.06.6c1.53,1.07,2.73,1.8,4.33,2.73A31.81,31.81,0,0,0,180,43.68Z"/><path class="cls-1" d="M283.89,15.23V10.51H268.54a51.42,51.42,0,0,1-2.86-10h-6.12a69.13,69.13,0,0,0,2.66,10H245v4.72Zm-44.14-2V58.77H233.7V22.08h-5.91A84.19,84.19,0,0,0,238.36.54H245c-1.59,4.23-3.28,8.55-5.25,12.67Zm46.6,45.56V54.05H271.66c3.86-10.84,7.31-22,8.91-33.7h-6.25a141.82,141.82,0,0,1-8.71,33.7h-22.8v4.72ZM261.09,46.6h-6.38c-2.79-7.51-4.78-17.28-6-26.25h6A123.23,123.23,0,0,0,261.09,46.6Z"/><path class="cls-1" d="M28.78,39.16H22.73a69.69,69.69,0,0,1-5,17.42h6.72A105.1,105.1,0,0,0,28.78,39.16Z"/><path class="cls-1" d="M48.52,26.46V21.88H40.61C41.74,18.75,43.27,14,44,11.31h2.86V6.72H37.35c-.66-1.59-1.73-4.59-2.19-6.25H29c.53,1.86,1.39,4.45,2.12,6.25h-12v4.59h3.86c.66,3.19,1.72,7.64,2.66,10.57H17.87v4.58h12.9V32H18.41V36.7H30.77v22h5.92v-22h11.1V32H36.69V26.46ZM37.82,11.31c-.6,2.59-2.26,7.84-3.26,10.57H31.37c-.87-2.73-2-7.78-2.53-10.57Z"/><path class="cls-1" d="M75.51,24.87V20.15H56.3V10.51a1.43,1.43,0,0,1,1.26-1.46A132.76,132.76,0,0,0,73.91,6V1.34C67.6,2.73,61,4.06,54.44,5.06a4.44,4.44,0,0,0-2.73,1.46,5,5,0,0,0-1.26,3.39V47.42c0,4.86,0,6.63-1.13,11.36h5.84C56.44,54,56.3,52.09,56.3,47.12V24.87h8.24V58.7h5.92V24.87Z"/><path class="cls-1" d="M38.55,39.16H44.6a69.27,69.27,0,0,0,5,17.42H42.87A105.1,105.1,0,0,1,38.55,39.16Z"/><path class="cls-1" d="M107.19,39.56h5.32a46.55,46.55,0,0,0,5.32,17h-6.32A51.36,51.36,0,0,1,107.19,39.56Z"/></svg>