<svg xmlns="http://www.w3.org/2000/svg" id="_&#x5716;&#x5C64;_1" viewBox="0 0 122.31 122.31"><defs><style>.cls-1{fill:#ec7171;}</style></defs><path class="cls-1" d="M84.09,57.5h-3.87c-.21,0-.31.1-.31.31v1.05c0,.18.1.27.31.27h3.87c.18,0,.27-.09.27-.27v-1.05c0-.21-.09-.31-.27-.31Z"></path><path class="cls-1" d="M34.74,69.66h12.75c.21,0,.31-.1.31-.31v-1.63c0-.21-.1-.31-.31-.31h-12.75c-.18,0-.27.1-.27.31v1.63c0,.21.09.31.27.31Z"></path><path class="cls-1" d="M84.09,53.43h-3.87c-.21,0-.31.09-.31.27v1.05c0,.21.1.31.31.31h3.87c.18,0,.27-.1.27-.31v-1.05c0-.18-.09-.27-.27-.27Z"></path><path class="cls-1" d="M34.74,64.12h12.75c.21,0,.31-.09.31-.27v-1.51c0-.21-.1-.31-.31-.31h-12.75c-.18,0-.27.1-.27.31v1.51c0,.18.09.27.27.27Z"></path><path class="cls-1" d="M93.16,53.43h-3.95c-.18,0-.27.09-.27.27v1.05c0,.21.09.31.27.31h3.95c.21,0,.31-.1.31-.31v-1.05c0-.18-.1-.27-.31-.27Z"></path><path class="cls-1" d="M91.57,62.11c-.15-.13-.13-.25.08-.35h-2.44c-.18,0-.27.09-.27.27v.93c0,.21.09.31.27.31l3.33-.04s.04-.02.06-.06c.01-.04,0-.07-.02-.1-.26-.28-.59-.61-1.01-.97Z"></path><path class="cls-1" d="M93.16,57.5h-3.95c-.18,0-.27.1-.27.31v1.05c0,.18.09.27.27.27h3.95c.21,0,.31-.09.31-.27v-1.05c0-.21-.1-.31-.31-.31Z"></path><path class="cls-1" d="M61.16,0h0C27.52,0,0,27.52,0,61.16H0C0,94.79,27.52,122.31,61.16,122.31h0c33.64,0,61.16-27.52,61.16-61.16h0C122.31,27.52,94.79,0,61.16,0ZM24.43,48.78c0-.64.22-1.19.66-1.63s.98-.66,1.63-.66h11.78c.18,0,.27-.1.27-.31v-.62c0-.65.23-1.19.68-1.63.45-.44.99-.66,1.61-.66h.27c.65,0,1.19.22,1.63.66.44.44.66.98.66,1.63v.62c0,.21.1.31.31.31h12.05c.65,0,1.19.22,1.63.66.44.44.66.98.66,1.63v4.18c0,.62-.22,1.16-.66,1.61-.44.45-.98.68-1.63.68h-.27c-.62,0-1.16-.23-1.61-.68-.45-.45-.68-.99-.68-1.61v-2.05c0-.21-.09-.31-.27-.31h-23.83c-.18,0-.27.1-.27.31v2.05c0,.62-.23,1.16-.68,1.61s-.99.68-1.61.68h-.04c-.65,0-1.19-.23-1.63-.68-.44-.45-.66-.99-.66-1.61v-4.18ZM30.61,59.16c.45-.44.99-.66,1.61-.66h18.05c.62,0,1.16.22,1.61.66.45.44.68.98.68,1.63v10.11c0,.62-.23,1.16-.68,1.61-.45.45-.99.68-1.61.68h-18.05c-.62,0-1.16-.23-1.61-.68-.45-.45-.68-.99-.68-1.61v-10.11c0-.65.23-1.19.68-1.63ZM30.48,54.61c0-.5.19-.94.56-1.32.37-.37.82-.56,1.34-.56h17.74c.52,0,.96.19,1.32.56.36.38.54.81.54,1.32s-.18.94-.54,1.32c-.36.38-.8.56-1.32.56h-17.74c-.52,0-.96-.19-1.34-.56-.37-.37-.56-.81-.56-1.32ZM58.15,78.53c-.43.41-.92.62-1.49.62h-30.76c-.59,0-1.1-.21-1.51-.62s-.62-.91-.62-1.49.21-1.08.62-1.49.92-.62,1.51-.62h30.76c.57,0,1.06.21,1.49.62s.64.91.64,1.49-.21,1.08-.64,1.49ZM98.99,71.35c-.35.35-.77.52-1.26.52h-2.94c-.21,0-.31.1-.31.31v3.76c0,1.11-.14,1.95-.41,2.52-.27.57-.78.99-1.53,1.28-.9.36-2.36.56-4.38.58h-.04c-.59,0-1.11-.18-1.55-.54-.49-.39-.84-.88-1.05-1.47-.05-.15-.08-.31-.08-.46,0-.28.09-.56.27-.81.26-.39.62-.58,1.08-.58h.04c.72.03,1.5.04,2.32.04.28-.03.48-.08.6-.17.12-.09.17-.25.17-.48v-3.64c0-.21-.09-.31-.27-.31h-8.25c-.05,0-.09.03-.12.08-.03.05-.01.09.04.12.88.85,1.65,1.65,2.32,2.4.31.36.46.76.46,1.2,0,.1-.01.22-.04.35-.1.59-.41,1.05-.93,1.36-.36.23-.76.35-1.2.35-.15,0-.31-.01-.46-.04-.59-.13-1.08-.43-1.47-.89-.57-.72-1.19-1.45-1.86-2.17-.31-.34-.46-.72-.46-1.16v-.19c.05-.54.31-.96.77-1.24.03-.03.03-.06.02-.1-.01-.04-.03-.06-.06-.06h-3.49c-.49,0-.91-.17-1.26-.52s-.52-.77-.52-1.26.17-.91.52-1.26.77-.52,1.26-.52h14.72c.18,0,.27-.1.27-.31v-1.12c0-.18-.09-.27-.27-.27-4.21.1-8.7.21-13.48.31h-.04c-.49,0-.92-.16-1.28-.46-.39-.34-.61-.76-.66-1.28v-.19c0-.39.13-.72.39-1.01.31-.36.71-.54,1.2-.54,1.42,0,4.17-.03,8.25-.08.21,0,.31-.1.31-.31v-1.01c0-.18-.09-.27-.27-.27h-6.2c-.65,0-1.19-.23-1.63-.68-.44-.45-.66-.99-.66-1.61v-6.35c0-.62.22-1.16.66-1.61.44-.45.98-.68,1.63-.68h6.2c.18,0,.27-.09.27-.27v-.93c0-.21-.09-.31-.27-.31h-8.45c-.44,0-.82-.16-1.14-.48-.32-.32-.48-.7-.48-1.14,0-.03-.03-.04-.08-.04-.77,1.73-1.6,3.41-2.48,5.04-.1.18-.15.36-.15.54v24.72c0,.62-.22,1.15-.66,1.59-.44.44-.97.66-1.59.66s-1.15-.22-1.59-.66c-.44-.44-.66-.97-.66-1.59v-17.74c0-.05-.02-.08-.06-.1-.04-.01-.07,0-.1.06-.34.41-.67.83-1.01,1.24-.28.34-.63.5-1.05.5-.08,0-.17-.01-.27-.04-.52-.08-.89-.36-1.12-.85-.15-.28-.3-.55-.43-.81-.26-.49-.39-1.01-.39-1.55,0-.1.01-.22.04-.35.05-.67.3-1.26.74-1.78,2.66-3.12,4.87-6.8,6.62-11.04.26-.59.67-1.03,1.24-1.32.34-.16.68-.23,1.05-.23.23,0,.48.04.74.12l1.28.39c.28.1.49.29.62.54.13.26.13.53,0,.81-.03.08.01.12.12.12h9.26c.18,0,.27-.09.27-.27,0-.59.21-1.1.64-1.51s.92-.62,1.49-.62h.27c.59,0,1.1.21,1.53.62s.64.92.64,1.51c0,.18.09.27.27.27h8.21c.46,0,.87.17,1.2.5.33.34.5.74.5,1.22s-.17.88-.5,1.2c-.34.32-.74.48-1.2.48h-8.21c-.18,0-.27.1-.27.31v.93c0,.18.09.27.27.27h6.47c.65,0,1.19.23,1.63.68.44.45.66.99.66,1.61v7.09c0,.41-.15.77-.45,1.08-.3.31-.67.46-1.1.46-.03,0-.05.02-.06.06-.01.04,0,.06.02.06.93.9,1.73,1.74,2.4,2.52.26.28.39.61.39.97,0,.1-.01.22-.04.35-.1.49-.37.85-.81,1.08l-.43.27c-.36.18-.74.23-1.14.14-.4-.09-.72-.3-.95-.64-.08-.08-.18-.12-.31-.12h-.7c-.21.03-.31.13-.31.31v1.24c0,.21.1.31.31.31h2.94c.49,0,.91.17,1.26.52s.52.77.52,1.26-.17.91-.52,1.26Z"></path></svg>