<svg xmlns="http://www.w3.org/2000/svg" id="_&#x5716;&#x5C64;_1" viewBox="0 0 122.31 122.31"><defs><style>.cls-1{fill:#79a9db;}</style></defs><path class="cls-1" d="M74.91,53.26h-5.66c-.18,0-.27.09-.27.27v1.47c0,.21.09.31.27.31h5.66c.18,0,.27-.1.27-.31v-1.47c0-.18-.09-.27-.27-.27Z"></path><path class="cls-1" d="M83.66,67.71h-5.62c-.21,0-.31.1-.31.31v1.12c0,.18.1.27.31.27h5.62c.21,0,.31-.09.31-.27v-1.12c0-.21-.1-.31-.31-.31Z"></path><path class="cls-1" d="M74.91,48.3h-5.66c-.18,0-.27.09-.27.27v1.36c0,.21.09.31.27.31h5.66c.18,0,.27-.1.27-.31v-1.36c0-.18-.09-.27-.27-.27Z"></path><path class="cls-1" d="M83.66,72.01h-5.62c-.21,0-.31.09-.31.27v1.55c0,.18.1.27.31.27,2.66-.16,4.53-.27,5.62-.35.21-.03.31-.14.31-.35v-1.12c0-.18-.1-.27-.31-.27Z"></path><path class="cls-1" d="M83.66,63.52h-5.62c-.21,0-.31.09-.31.27v1.01c0,.21.1.31.31.31h5.62c.21,0,.31-.1.31-.31v-1.01c0-.18-.1-.27-.31-.27Z"></path><path class="cls-1" d="M36.29,56.08l-.12-.04c-.57-.1-.99-.43-1.28-.97-.18-.31-.27-.62-.27-.93,0-.23.04-.46.12-.7.26-.72.46-1.37.62-1.94,0-.08-.02-.15-.06-.21-.04-.06-.1-.1-.17-.1h-5.42c-.05,0-.1.03-.14.1s-.05.12-.02.17c.31.7.59,1.47.85,2.32.05.16.08.32.08.5,0,.31-.1.61-.31.89-.26.44-.65.74-1.16.89v.04h7.28v-.04Z"></path><path class="cls-1" d="M61.16,0h0C27.52,0,0,27.52,0,61.16h0c0,33.64,27.52,61.16,61.16,61.16h0c33.64,0,61.16-27.52,61.16-61.16h0C122.31,27.52,94.79,0,61.16,0ZM37.8,74.02l-.04.04c-.57,0-1.03-.21-1.39-.62-.41-.44-.84-.87-1.28-1.28-.03-.03-.06-.03-.12-.02-.05.01-.08.04-.08.1v5.89c0,.64-.22,1.19-.66,1.63-.44.44-.98.66-1.61.66s-1.18-.22-1.63-.66c-.45-.44-.68-.98-.68-1.63v-5.38c0-.05-.02-.08-.06-.1-.04-.01-.07,0-.1.02-1.01,1.42-2.07,2.7-3.18,3.84-.41.39-.87.58-1.36.58-.08,0-.15-.01-.23-.04-.59-.05-1.1-.31-1.51-.77-.36-.39-.54-.85-.54-1.39,0-.62.23-1.14.7-1.55,2.01-1.71,3.74-3.72,5.19-6.04.03-.05.03-.1,0-.15-.03-.05-.08-.08-.16-.08h-3.76c-.54,0-1.01-.19-1.4-.58-.39-.39-.58-.85-.58-1.39s.19-1.01.58-1.39c.39-.39.85-.58,1.4-.58h4.73c.18,0,.27-.1.27-.31v-2.48c0-.18-.09-.27-.27-.27h-4.88c-.54,0-1-.19-1.38-.58-.38-.39-.56-.85-.56-1.38s.19-.99.56-1.38c.37-.39.83-.58,1.38-.58h1.43c.18,0,.26-.09.23-.27-.08-.62-.22-1.29-.43-2.01-.05-.21-.08-.4-.08-.58,0-.36.09-.7.27-1.01.26-.52.67-.84,1.24-.97v-.08h-2.25c-.54,0-1-.19-1.38-.56-.37-.37-.56-.83-.56-1.36s.19-.98.56-1.36c.37-.37.83-.56,1.38-.56h4.46c.18,0,.27-.09.27-.27v-1.05c0-.65.23-1.19.68-1.63.45-.44.99-.66,1.63-.66s1.17.22,1.61.66c.44.44.66.98.66,1.63v1.05c0,.18.1.27.31.27h4.34c.54,0,1,.19,1.38.56.37.38.56.83.56,1.36s-.19.98-.56,1.36c-.37.38-.83.56-1.38.56h-1.9v.08c.54.1.94.39,1.2.85.13.26.19.52.19.77,0,.23-.05.45-.15.66-.41,1.01-.74,1.78-.97,2.33-.03.05-.02.1.02.15.04.05.08.08.14.08h1.78c.54,0,1,.19,1.38.58.37.39.56.85.56,1.38s-.19.99-.56,1.38c-.37.39-.83.58-1.38.58h-4.65c-.21,0-.31.09-.31.27v2.48c0,.21.1.31.31.31h4.26c.54,0,1.01.19,1.39.58.39.39.58.85.58,1.39s-.19,1.01-.58,1.39c-.39.39-.85.58-1.39.58h-4.42c-.1,0-.16.05-.16.16s.04.18.12.23c.75.54,2.01,1.51,3.8,2.91.49.36.76.84.81,1.43.03.1.04.19.04.27,0,.49-.17.93-.5,1.32-.34.44-.79.66-1.36.66ZM59.16,60.21c-.43.43-.94.64-1.53.64h-1.32c-.18,0-.27.1-.27.31v16.81c0,.62-.23,1.16-.68,1.61-.45.45-.99.68-1.61.68s-1.16-.23-1.61-.68c-.45-.45-.68-.99-.68-1.61v-16.81c0-.21-.09-.31-.27-.31h-3.49c-.18,0-.27.1-.27.31-.1,7.67-1.65,13.56-4.65,17.67-.36.44-.81.66-1.36.66h-.08c-.57,0-1.07-.22-1.51-.66-.03-.03-.05-.05-.08-.08-.44-.41-.7-.92-.77-1.51-.03-.1-.04-.21-.04-.31,0-.49.14-.94.43-1.36.77-1.08,1.41-2.28,1.92-3.58.5-1.3.87-2.65,1.1-4.05s.39-2.66.46-3.8c.08-1.14.12-2.41.12-3.83v-11.47c0-.59.23-1.06.7-1.39.31-.23.65-.35,1.01-.35.15,0,.32.03.5.08l.27.08c.21.05.4.05.58,0,3-.72,5.56-1.54,7.71-2.44.46-.21.94-.31,1.43-.31.18,0,.36.01.54.04.7.1,1.29.39,1.78.85l.43.35c.31.28.46.63.46,1.05,0,.1-.01.21-.04.31-.08.52-.37.87-.89,1.05-2.74,1.03-5.99,1.95-9.76,2.75-.18.03-.27.14-.27.35v4.96c0,.21.09.31.27.31h9.92c.59,0,1.1.21,1.53.64.43.43.64.94.64,1.53s-.21,1.1-.64,1.53ZM68.98,58.91v19.29c0,.65-.23,1.19-.68,1.63-.45.44-.99.66-1.61.66h-.04c-.62,0-1.16-.22-1.61-.66-.45-.44-.68-.98-.68-1.63v-30.95c0-.64.23-1.19.68-1.63.45-.44.99-.66,1.61-.66h10.69c.65,0,1.19.22,1.63.66.44.44.66.98.66,1.63v9.1c0,.62-.22,1.16-.66,1.61-.44.45-.98.68-1.63.68h-8.1c-.18,0-.27.09-.27.27ZM88.47,63.52c-.18,0-.27.09-.27.27v13.48c0,.57-.21,1.06-.62,1.47-.41.41-.9.62-1.47.62h-.08c-.57,0-1.05-.2-1.45-.6s-.6-.88-.6-1.45c0-.18-.09-.26-.27-.23-7.13.52-10.74.79-10.85.81h-.19c-.41,0-.77-.14-1.08-.43-.41-.34-.62-.77-.62-1.32,0-.44.15-.83.46-1.16.34-.36.74-.56,1.2-.58l.7-.04c.21-.03.31-.13.31-.31v-10.27c0-.18-.09-.27-.27-.27h-.46c-.44,0-.82-.16-1.14-.48-.32-.32-.48-.71-.48-1.16s.16-.83.48-1.14c.32-.31.7-.46,1.14-.46h16.08c.44,0,.82.16,1.14.46.32.31.48.69.48,1.14s-.16.84-.48,1.16c-.32.32-.7.48-1.14.48h-.5ZM97.8,75.03c0,1.21-.13,2.16-.39,2.85-.26.68-.72,1.21-1.39,1.57-.88.52-2.21.81-3.99.89h-.12c-.59,0-1.12-.19-1.59-.58-.52-.41-.87-.96-1.05-1.63-.03-.1-.05-.21-.08-.31-.05-.18-.08-.35-.08-.5,0-.31.09-.62.27-.93.31-.41.72-.62,1.24-.62h.58c.54,0,.94-.01,1.2-.04.28,0,.48-.06.58-.17.1-.12.16-.32.16-.6v-15.96c0-.18-.09-.27-.27-.27h-8.33c-.65,0-1.19-.23-1.63-.68-.44-.45-.66-.99-.66-1.61v-9.18c0-.64.22-1.19.66-1.63.44-.44.98-.66,1.63-.66h10.96c.65,0,1.19.22,1.63.66.44.44.66.98.66,1.63v27.78Z"></path><path class="cls-1" d="M92.88,53.26h-5.85c-.21,0-.31.09-.31.27v1.55c0,.21.1.31.31.31h5.85c.18,0,.27-.1.27-.31v-1.55c0-.18-.09-.27-.27-.27Z"></path><path class="cls-1" d="M92.88,48.3h-5.85c-.21,0-.31.09-.31.27v1.36c0,.21.1.31.31.31h5.85c.18,0,.27-.1.27-.31v-1.36c0-.18-.09-.27-.27-.27Z"></path></svg>