<svg xmlns="http://www.w3.org/2000/svg" id="_&#x5716;&#x5C64;_1" viewBox="0 0 122.31 122.31"><defs><style>.cls-1{fill:#f6c457;}</style></defs><path class="cls-1" d="M75.1,64.45h2.52c.18,0,.27-.09.27-.27v-1.2c0-.21-.09-.31-.27-.31h-2.52c-.21,0-.31.1-.31.31v1.2c0,.18.1.27.31.27Z"></path><path class="cls-1" d="M70.22,58.14h-2.52c-.18,0-.27.09-.27.27v1.16c0,.21.09.31.27.31h2.52c.21,0,.31-.1.31-.31v-1.16c0-.18-.1-.27-.31-.27Z"></path><path class="cls-1" d="M70.22,62.67h-2.52c-.18,0-.27.1-.27.31v1.2c0,.18.09.27.27.27h2.52c.21,0,.31-.09.31-.27v-1.2c0-.21-.1-.31-.31-.31Z"></path><path class="cls-1" d="M75.1,59.88h2.52c.18,0,.27-.1.27-.31v-1.16c0-.18-.09-.27-.27-.27h-2.52c-.21,0-.31.09-.31.27v1.16c0,.21.1.31.31.31Z"></path><path class="cls-1" d="M61.16,0h0C27.52,0,0,27.52,0,61.16h0c0,33.64,27.52,61.16,61.16,61.16h0c33.64,0,61.16-27.52,61.16-61.16h0C122.31,27.52,94.79,0,61.16,0ZM23.89,57.63c0-.39.13-.75.39-1.08.36-.52.84-.85,1.43-1.01.23-.05.45-.08.66-.08.39,0,.76.09,1.12.27,1.45.72,2.61,1.32,3.49,1.78.57.28.92.74,1.05,1.36.05.16.08.32.08.5,0,.41-.13.8-.39,1.16l-.08.12c-.34.52-.81.84-1.43.97-.18.05-.36.08-.54.08-.41,0-.81-.12-1.2-.35-.93-.57-2.12-1.25-3.56-2.05-.52-.26-.83-.67-.93-1.24-.05-.16-.08-.3-.08-.43ZM33.5,69.57c-1.6,3.05-3.19,5.9-4.77,8.56-.34.52-.8.83-1.39.93h-.35c-.46,0-.88-.14-1.24-.43l-.43-.35c-.49-.41-.79-.93-.89-1.55-.03-.13-.04-.26-.04-.39,0-.49.14-.96.43-1.39,1.83-2.74,3.56-5.6,5.19-8.6.28-.49.71-.79,1.28-.89.1-.03.21-.04.31-.04.44,0,.83.16,1.16.46l.08.08c.52.46.83,1.03.93,1.7.05.18.08.36.08.54,0,.46-.12.92-.35,1.36ZM33.54,49.77l-.12.12c-.36.52-.85.83-1.47.93-.15.03-.31.04-.46.04-.46,0-.9-.13-1.32-.39-.83-.52-1.96-1.19-3.41-2.01-.52-.28-.83-.71-.93-1.28-.03-.13-.04-.26-.04-.39,0-.41.13-.79.39-1.12.39-.49.89-.81,1.51-.97.21-.03.4-.04.58-.04.41,0,.81.09,1.2.27,1.37.72,2.52,1.33,3.45,1.82.54.31.88.76,1.01,1.36.03.16.04.31.04.46,0,.41-.14.81-.43,1.2ZM59.07,58.8c-.44.44-.97.66-1.59.66h-7.52c-.21,0-.31.1-.31.31v4.42c0,.18.1.27.31.27h5.5c.62,0,1.16.23,1.61.68.45.45.68.99.68,1.61v11.31c0,.62-.22,1.15-.66,1.59-.44.44-.97.66-1.59.66h-.97c-.36,0-.67-.12-.91-.37s-.37-.55-.37-.91c0-.1-.05-.16-.16-.16h-11.58c-.13,0-.19.06-.19.19,0,.39-.14.72-.43,1.01-.28.28-.62.43-1.01.43h-.7c-.57,0-1.07-.21-1.49-.62-.43-.41-.64-.92-.64-1.51v-11.62c0-.62.23-1.16.68-1.61.45-.45.99-.68,1.61-.68h5.54c.18,0,.27-.09.27-.27v-4.42c0-.21-.09-.31-.27-.31h-8.02c-.62,0-1.15-.22-1.59-.66-.44-.44-.66-.97-.66-1.59s.22-1.15.66-1.59c.44-.44.97-.66,1.59-.66h8.02c.18,0,.27-.1.27-.31v-4.07c0-.18-.09-.26-.27-.23-1.58.23-3.36.45-5.35.66h-.23c-.49,0-.94-.14-1.36-.43-.49-.36-.84-.84-1.05-1.43-.05-.18-.08-.37-.08-.58,0-.28.08-.57.23-.85.26-.46.66-.72,1.2-.77,5.78-.67,10.52-1.59,14.22-2.75.39-.13.77-.19,1.16-.19.28,0,.57.04.85.12.7.16,1.28.48,1.74.97l.46.46c.28.28.43.61.43.97,0,.13-.01.26-.04.39-.13.52-.44.85-.93,1.01-1.83.59-3.91,1.11-6.24,1.55-.18.03-.27.14-.27.35v4.84c0,.21.1.31.31.31h7.52c.62,0,1.15.22,1.59.66.44.44.66.97.66,1.59s-.22,1.15-.66,1.59ZM98,72.12c-.26,3.23-.68,5.28-1.28,6.16-.44.62-.9,1.07-1.38,1.34s-1.06.48-1.76.64c-.65.13-1.54.19-2.67.19-.62,0-1.18-.22-1.67-.66-.49-.44-.83-.98-1.01-1.63-.03-.05-.05-.12-.08-.19-.05-.16-.08-.32-.08-.5,0-.28.09-.57.27-.85.28-.39.66-.58,1.12-.58h.08c.65.03,1.21.04,1.7.04.59,0,1.05-.22,1.36-.66.41-.54.73-2.18.95-4.92.22-2.74.39-7.24.52-13.52,0-.18-.1-.27-.31-.27h-2.98c-.18,0-.28.09-.31.27-.26,5.22-.92,9.62-2,13.21s-2.83,6.61-5.29,9.06c-.39.36-.83.54-1.32.54h-.23c-.59-.08-1.11-.35-1.55-.81-.39-.44-.77-.83-1.16-1.16-.13-.13-.3-.18-.5-.15-6.3.67-10.77,1.12-13.4,1.36h-.23c-.46,0-.89-.16-1.28-.46-.44-.34-.7-.79-.77-1.36-.03-.1-.04-.19-.04-.27,0-.44.14-.83.43-1.16.34-.41.77-.65,1.32-.7,2.17-.16,4.09-.28,5.77-.39.21,0,.31-.1.31-.31v-1.78c0-.21-.1-.31-.31-.31h-5.04c-.44,0-.83-.16-1.16-.48-.34-.32-.5-.72-.5-1.18s.17-.86.5-1.18c.34-.32.72-.48,1.16-.48h5.04c.21,0,.31-.09.31-.27v-.97c0-.21-.1-.31-.31-.31h-4.22c-.65,0-1.19-.22-1.63-.66-.44-.44-.66-.98-.66-1.63v-7.67c0-.64.22-1.19.66-1.63.44-.44.98-.66,1.63-.66h4.22c.21,0,.31-.1.31-.31v-.97c0-.18-.1-.27-.31-.27h-5.81c-.46,0-.87-.17-1.2-.5-.34-.33-.5-.74-.5-1.2s.17-.87.5-1.2c.34-.34.74-.5,1.2-.5h5.81c.21,0,.31-.1.31-.31v-1.01c0-.18-.1-.27-.31-.27-1.7.13-3.25.22-4.65.27h-.08c-.46,0-.89-.15-1.28-.46-.39-.31-.66-.71-.81-1.2-.13-.41-.08-.8.15-1.16.23-.36.56-.56.97-.58,5.29-.33,9.75-.81,13.37-1.43.16-.03.32-.04.5-.04.41,0,.83.08,1.24.23.54.26.97.65,1.28,1.16.13.26.19.5.19.74,0,.21-.04.41-.12.62-.21.44-.56.71-1.05.81-1.47.23-3.09.45-4.84.66-.21.03-.31.13-.31.31v1.36c0,.21.1.31.31.31h5.38c.54,0,1,.19,1.38.56.37.38.56.83.56,1.38,0,.15.08.23.23.23h3.22c.18,0,.27-.09.27-.27.03-1.5.04-3.42.04-5.77,0-.62.22-1.15.66-1.59.44-.44.97-.66,1.61-.66s1.17.22,1.61.66c.44.44.66.97.66,1.59,0,2.27-.03,4.2-.08,5.77,0,.18.09.27.27.27h5.5c.62,0,1.15.22,1.59.66.44.44.66.97.66,1.59,0,6.02-.22,11.85-.66,17.51Z"></path><path class="cls-1" d="M85.76,56.7h-1.05c-.65,0-1.19-.23-1.63-.68-.44-.45-.66-.99-.66-1.61v-.54c0-.18-.1-.27-.31-.27h-7.01c-.21,0-.31.09-.31.27v.97c0,.21.1.31.31.31h4.46c.62,0,1.16.22,1.61.66.45.44.68.98.68,1.63v7.67c0,.65-.23,1.19-.68,1.63-.45.44-.99.66-1.61.66h-4.46c-.21,0-.31.1-.31.31v.97c0,.18.1.27.31.27h5.23c.44,0,.83.16,1.16.48.34.32.5.72.5,1.18s-.17.86-.5,1.18c-.34.32-.72.48-1.16.48h-5.23c-.21,0-.31.1-.31.31v1.43c0,.18.1.27.31.27,1.55-.1,3.65-.27,6.31-.5.21-.03.36-.12.46-.27,1.37-1.99,2.36-4.31,2.98-6.97.62-2.66,1.01-5.85,1.16-9.57,0-.18-.09-.27-.27-.27Z"></path><path class="cls-1" d="M41.32,69.02v5.27c0,.21.1.31.31.31h11.35c.18,0,.27-.1.27-.31v-5.27c0-.18-.09-.27-.27-.27h-11.35c-.21,0-.31.09-.31.27Z"></path></svg>